<?xml version="1.0" encoding="utf-8"?>
<!-- Generator: Adobe Illustrator 27.3.1, SVG Export Plug-In . SVG Version: 6.00 Build 0)  -->
<svg version="1.1" id="Layer_1" xmlns="http://www.w3.org/2000/svg" xmlns:xlink="http://www.w3.org/1999/xlink" x="0px" y="0px"
	 viewBox="0 0 500 361.43" style="enable-background:new 0 0 500 361.43;" xml:space="preserve">
<style type="text/css">
	.st0{fill:#012D0E;}
	.st1{fill:#A00A20;}
</style>
<path class="st0" d="M280.31,171.23c17.4,0.01,34.8,0.03,52.19,0.03c1.03,0,2.07,0,3.1,0v-8.56c-4.27,0.01-8.55,0.01-12.82,0.02
	c-12.99,0.02-25.99-0.01-38.98,0.04c-3.07,0.01-6.17-0.23-9.19,0.59c-2.53,0.69-4.74,1.82-6.28,4.04c-1.39,2-1.57,4.3-1.6,6.58
	c-0.08,6.38-0.05,12.76-0.03,19.13c0.01,2.45,0.06,4.9,0.2,7.34c0.11,1.89,0.54,3.69,1.81,5.25c1.82,2.23,4.3,3.25,6.97,3.56
	c3.2,0.38,6.45,0.33,9.68,0.41c0.26,0.01,0.64-0.27,0.79-0.52c1.5-2.53,2.97-5.09,4.54-7.8c-0.72-0.04-1.34-0.09-1.96-0.1
	c-2.96-0.04-5.91-0.09-8.87-0.1c-2.92-0.02-4.13-1.96-4.11-4.42c0.04-7.04,0.06-14.08,0.09-21.11
	C275.87,172.66,277.34,171.23,280.31,171.23z"/>
<path class="st0" d="M186.06,172.46c-0.09-3.73-1.79-6.55-5.24-8.17c-2.23-1.05-4.62-1.38-7.06-1.38
	c-19.76,0.03-39.52,0.06-59.28,0.08v8.58c19.04,0.01,38.07,0.01,57.11,0.02c1,0,2.02,0.02,3.01,0.18c1.88,0.31,2.79,1.42,2.79,3.33
	c0,1.66-0.13,3.33-0.11,4.99c0.01,0.63,0.14,1.32,0.44,1.87c0.94,1.74,2.04,3.39,2.97,5.14c0.42,0.79,0.82,0.76,1.47,0.36
	c2.47-1.52,3.56-3.86,3.73-6.62C186.07,178.06,186.13,175.26,186.06,172.46z"/>
<path class="st0" d="M123.9,175.15c0,1.99-0.05,3.86,0.02,5.74c0.05,1.54,0.29,1.67,1.82,1.67c8.37-0.01,16.74,0,25.11,0
	c6.76,0,13.53,0.01,20.29,0.02c0.3,0,0.6,0.03,1.08,0.06c-0.25,0.47-0.4,0.8-0.58,1.11c-1.01,1.7-2.04,3.39-3.05,5.09
	c-1.21,2.04-1.18,2.5,0.46,4.19c4.14,4.26,8.3,8.51,12.46,12.75c6.78,6.91,13.57,13.82,20.35,20.73c0.33,0.33,0.63,0.68,1.1,1.19
	c-0.53,0.06-0.88,0.12-1.23,0.12c-3.15,0.02-6.29-0.01-9.44,0.06c-0.95,0.02-1.58-0.31-2.21-0.97
	c-7.58-7.89-15.17-15.76-22.78-23.62c-3.82-3.95-7.69-7.87-11.5-11.83c-0.91-0.94-1.91-1.44-3.23-1.44
	c-8.97,0.02-17.93,0.01-26.9,0.02c-1.43,0-1.83,0.46-1.84,2.11c-0.02,4.05,0,8.11,0,12.16c0,1.7-0.05,3.39-0.01,5.09
	c0.02,0.7-0.27,0.97-0.92,0.97c-2.52,0.01-5.03,0.01-7.55,0.03c-0.69,0.01-0.62-0.45-0.62-0.9c-0.01-8.29-0.03-16.59-0.05-24.88
	c0-2.7,0-5.4,0.01-8.11c0.01-1.27,0.02-1.32,1.33-1.34C118.65,175.13,121.28,175.15,123.9,175.15z"/>
<path class="st0" d="M89.44,188.79c-0.98-1.76-1.84-3.32-2.72-4.87c-1.83-3.22-3.67-6.44-5.51-9.65c-1.16-2.03-2.88-3.07-5.27-2.96
	c-1.26,0.06-2.52,0.01-3.77,0c-2.23-0.03-3.89,0.98-4.97,2.85c-2.81,4.9-5.56,9.84-8.33,14.76c-0.18,0.33-0.37,0.66-0.49,1.02
	c-0.37,1.16,0.26,2.09,1.47,2.2c0.31,0.03,0.63,0.02,0.94,0.02c13.18,0.02,26.36,0.04,39.54,0.02c0.86,0,1.25,0.31,1.65,1.03
	c2.61,4.66,5.28,9.28,7.92,13.91c0.44,0.78,0.84,1.58,1.38,2.62c-2,0-3.75,0.01-5.49,0c-1.19-0.01-2.39-0.09-3.58-0.07
	c-0.71,0.01-1.16-0.21-1.52-0.85c-1.31-2.36-2.72-4.67-4.01-7.04c-0.79-1.45-1.92-1.97-3.54-1.96c-9.97,0.08-19.94,0.1-29.92,0.12
	c-6.42,0.02-12.84,0.02-19.25,0.02c-0.34,0-0.67-0.06-1.1-0.09c0.08-0.26,0.1-0.44,0.19-0.58c3.06-5.34,6.14-10.67,9.2-16.01
	c3.06-5.34,6.09-10.69,9.14-16.04c0.39-0.68,0.78-1.37,1.24-2c1.08-1.49,2.52-2.33,4.4-2.32c4.56,0.01,9.12-0.02,13.68,0.03
	c2.5,0.03,4.5,1.06,5.78,3.28c2.51,4.35,5,8.72,7.5,13.07c0.4,0.69,0.37,1.3-0.07,2.01c-1.29,2.08-2.51,4.2-3.76,6.31
	C90.01,187.94,89.8,188.24,89.44,188.79z"/>
<path class="st0" d="M283.57,181.96c15.81,0,31.45,0,47.25,0c-0.6,1.06-1.17,2.05-1.74,3.03c-0.82,1.41-1.68,2.8-2.44,4.24
	c-0.47,0.88-1.07,1.25-2.09,1.25c-6.98-0.04-13.97-0.01-20.95-0.04c-4.59-0.02-9.18-0.08-13.77-0.16c-0.35-0.01-0.82-0.19-1.01-0.46
	c-1.62-2.28-3.2-4.59-4.77-6.89C283.87,182.66,283.76,182.35,283.57,181.96z"/>
<path class="st0" d="M295.34,201.25c0.92,0,1.61,0,2.29,0c9.5-0.02,18.99-0.05,28.49-0.04c0.49,0,1.13,0.26,1.45,0.62
	c1.96,2.21,3.84,4.48,5.74,6.75c0.25,0.29,0.39,0.67,0.67,1.16c-0.9,0-1.6,0-2.31,0c-9.81-0.02-19.62-0.04-29.43-0.04
	c-0.78,0-1.28-0.24-1.72-0.88c-1.49-2.18-3.03-4.32-4.54-6.48C295.79,202.06,295.64,201.76,295.34,201.25z"/>
<path class="st1" d="M225.38,175.14c-0.74-1.24-1.38-2.3-2-3.38c-1.49-2.62-2.95-5.25-4.43-7.86c-0.43-0.75-0.29-1.03,0.69-1.04
	c3.3-0.03,6.6-0.01,9.9-0.01c0.6,0,1.19,0.01,1.79,0.03c0.67,0.02,0.96,0.28,0.58,0.95c-1.53,2.67-3.05,5.34-4.58,8
	C226.72,172.87,226.1,173.91,225.38,175.14z"/>
<path class="st1" d="M37.18,209.55c1.83-3.18,3.59-6.23,5.39-9.34c1.65,2.95,3.24,5.78,4.83,8.61c0.39,0.69,0.08,0.91-0.58,0.92
	c-2.89,0.02-5.77,0.04-8.66,0.05C37.86,209.77,37.58,209.64,37.18,209.55z"/>
<path class="st0" d="M262.18,162.99c-0.16,0.41-0.23,0.67-0.35,0.9c-4.79,8.44-9.57,16.88-14.39,25.29
	c-2.65,4.66-5.36,9.3-8.07,13.92c-0.74,1.28-1.44,2.59-2.3,3.77c-1.39,1.92-3.32,2.78-5.7,2.72c-1.97-0.05-3.95-0.04-5.93-0.05
	h-0.08c-1.97,0.01-3.95,0-5.93,0.05c-2.37,0.05-4.31-0.8-5.7-2.72c-0.86-1.18-1.57-2.49-2.3-3.77c-2.7-4.63-5.4-9.27-8.07-13.92
	c-4.8-8.41-9.6-16.85-14.39-25.29c-0.12-0.23-0.19-0.49-0.34-0.9c0.6-0.05,1.06-0.12,1.51-0.12c2.45-0.01,4.91,0.03,7.36-0.03
	c0.39-0.01,0.71,0.05,0.97,0.18c0.35,0.19,0.61,0.5,0.86,0.95c2.7,4.82,5.44,9.61,8.19,14.4c5.51,9.68,11.04,19.37,16.57,29.03
	c0.37,0.65,0.79,1.27,1.27,2c0.03-0.03,0.04-0.05,0.07-0.08c0,0.03,0.03,0.05,0.05,0.08c0.46-0.74,0.88-1.35,1.25-2
	c5.53-9.66,11.05-19.36,16.58-29.03c2.74-4.79,5.49-9.58,8.18-14.4c0.26-0.46,0.52-0.78,0.87-0.95c0.26-0.14,0.57-0.19,0.97-0.18
	c2.45,0.05,4.9,0.01,7.35,0.03C261.12,162.87,261.57,162.94,262.18,162.99z"/>
<g>
	<g>
		<g>
			<path class="st0" d="M397.93,195.94c0,2.61-0.65,5.05-1.95,7.21c-1.28,2.16-3.01,3.91-5.15,5.19c-2.15,1.29-4.6,1.95-7.27,1.95
				h-40.88v-9.22h40.88c1.46,0,2.64-0.49,3.65-1.51s1.48-2.21,1.48-3.62c0-1.43-0.48-2.61-1.48-3.63c-1.01-1.01-2.19-1.51-3.65-1.51
				h-26.52c-2.61,0-5.05-0.65-7.23-1.95c-2.15-1.28-3.89-3.02-5.19-5.19c-1.28-2.18-1.95-4.6-1.95-7.23c0-2.61,0.67-5.04,1.95-7.21
				c1.29-2.16,3.04-3.92,5.2-5.2c2.16-1.28,4.6-1.93,7.21-1.93h37.62v9.22h-37.62c-1.42,0-2.6,0.49-3.62,1.51
				c-1.02,1.03-1.51,2.22-1.51,3.62c0,1.42,0.49,2.6,1.51,3.62c1.02,1.02,2.21,1.52,3.62,1.52h26.52c2.67,0,5.1,0.65,7.27,1.95
				c2.14,1.28,3.87,3.02,5.15,5.19C397.27,190.89,397.93,193.31,397.93,195.94z"/>
		</g>
	</g>
</g>
<g>
	<g>
		<g>
			<path class="st0" d="M458.88,195.94c0,2.61-0.65,5.05-1.93,7.21c-1.28,2.16-3.02,3.91-5.16,5.19c-2.15,1.29-4.6,1.95-7.26,1.95
				h-40.88v-9.22h40.88c1.44,0,2.64-0.49,3.63-1.51c1.01-1.02,1.5-2.21,1.5-3.62c0-1.43-0.49-2.61-1.5-3.63
				c-0.99-1.01-2.19-1.51-3.63-1.51h-26.52c-2.63,0-5.05-0.65-7.23-1.95c-2.16-1.28-3.91-3.02-5.19-5.19
				c-1.29-2.18-1.95-4.6-1.95-7.23c0-2.61,0.65-5.05,1.95-7.21c1.28-2.16,3.02-3.92,5.19-5.2c2.18-1.28,4.6-1.93,7.23-1.93h37.62
				v9.22h-37.62c-1.42,0-2.6,0.49-3.62,1.52c-1.02,1.02-1.52,2.21-1.52,3.61c0,1.42,0.5,2.6,1.52,3.62
				c1.02,1.02,2.21,1.52,3.62,1.52h26.52c2.65,0,5.1,0.65,7.26,1.95c2.14,1.28,3.87,3.02,5.16,5.19
				C458.23,190.89,458.88,193.31,458.88,195.94z"/>
		</g>
	</g>
</g>
<g>
	<g>
		<g>
			<path class="st1" d="M269.25,227.87v-0.57l1.08-0.4c0.08-0.03,0.13-0.06,0.17-0.1c0.04-0.04,0.06-0.11,0.06-0.2v-6.97h-1.97
				c-0.07,0-0.13,0.02-0.18,0.06s-0.08,0.1-0.1,0.18l-0.27,1.38h-0.93v-2.66h8.78v2.66h-0.93l-0.27-1.38
				c-0.02-0.08-0.05-0.14-0.1-0.18c-0.05-0.04-0.11-0.06-0.17-0.06h-1.98v6.97c0,0.09,0.03,0.16,0.08,0.21
				c0.05,0.05,0.1,0.08,0.16,0.1l1.09,0.4v0.57H269.25z"/>
			<path class="st1" d="M280.03,228c-0.42,0-0.8-0.08-1.15-0.24c-0.34-0.16-0.62-0.42-0.83-0.76c-0.21-0.35-0.31-0.8-0.31-1.35
				v-3.45c0-0.09-0.03-0.15-0.08-0.19c-0.05-0.04-0.1-0.08-0.16-0.1l-0.81-0.34v-0.58l2.85-0.33v4.25c0,0.39,0.03,0.73,0.09,1
				s0.19,0.49,0.38,0.63c0.19,0.14,0.47,0.22,0.85,0.22c0.39,0,0.7-0.05,0.93-0.16s0.42-0.25,0.55-0.43v-3.97
				c0-0.09-0.02-0.15-0.08-0.19c-0.05-0.04-0.11-0.07-0.17-0.1l-0.8-0.34v-0.58l2.85-0.33v5.81c0,0.09,0.02,0.15,0.07,0.19
				c0.05,0.04,0.11,0.07,0.17,0.1l0.8,0.34v0.58l-2.7,0.32v-1.16h-0.1c-0.29,0.36-0.61,0.65-0.96,0.86
				C281.08,227.9,280.61,228,280.03,228z"/>
			<path class="st1" d="M286.29,227.87v-0.56l0.8-0.32c0.07-0.03,0.13-0.07,0.18-0.11c0.04-0.04,0.07-0.1,0.07-0.19v-4.27
				c0-0.16-0.02-0.27-0.06-0.33c-0.04-0.06-0.1-0.11-0.17-0.14l-0.88-0.39v-0.58l2.82-0.33v1.48h0.07c0.29-0.43,0.56-0.75,0.81-0.98
				c0.25-0.22,0.49-0.37,0.72-0.45s0.45-0.12,0.66-0.12c0.2,0,0.42,0.03,0.63,0.08s0.42,0.15,0.6,0.31v1.96h-1.29l-0.19-0.47
				c-0.03-0.09-0.11-0.18-0.22-0.27c-0.11-0.08-0.24-0.13-0.39-0.13c-0.18,0-0.34,0.04-0.49,0.11c-0.15,0.07-0.29,0.17-0.42,0.29
				c-0.13,0.12-0.27,0.26-0.4,0.41v3.81c0,0.15,0.08,0.24,0.24,0.29l1.08,0.32v0.56H286.29z"/>
			<path class="st1" d="M293.48,227.87v-0.56l0.81-0.32c0.08-0.03,0.13-0.07,0.18-0.11c0.04-0.04,0.07-0.1,0.07-0.18v-4.5
				c0-0.09-0.02-0.15-0.07-0.19c-0.05-0.04-0.11-0.07-0.17-0.1l-0.8-0.34v-0.58l2.7-0.33v1.11h0.1c0.28-0.35,0.55-0.6,0.81-0.77
				c0.27-0.17,0.53-0.27,0.79-0.32s0.51-0.08,0.76-0.08c0.42,0,0.81,0.08,1.16,0.24s0.63,0.42,0.84,0.77
				c0.21,0.35,0.31,0.8,0.31,1.35v3.7c0,0.1,0.02,0.17,0.07,0.21c0.04,0.04,0.1,0.08,0.18,0.11l0.71,0.32v0.56h-3.67v-0.56
				l0.64-0.32c0.08-0.04,0.14-0.08,0.19-0.12c0.05-0.04,0.08-0.11,0.08-0.21v-2.97c0-0.4-0.03-0.73-0.1-1.01
				c-0.07-0.28-0.19-0.48-0.38-0.63c-0.19-0.14-0.48-0.22-0.86-0.22c-0.25,0-0.52,0.04-0.79,0.11c-0.28,0.07-0.51,0.24-0.69,0.49
				v4.25c0,0.08,0.02,0.14,0.08,0.18c0.05,0.04,0.11,0.08,0.17,0.11l0.6,0.32v0.56H293.48z"/>
			<path class="st1" d="M302.95,227.87v-0.56l1.04-0.34c0.08-0.03,0.14-0.06,0.18-0.1c0.05-0.04,0.07-0.1,0.07-0.19v-4.37
				c0-0.09-0.02-0.15-0.08-0.19c-0.05-0.04-0.11-0.08-0.17-0.1l-1.04-0.38v-0.58l3.08-0.21v5.83c0,0.09,0.03,0.15,0.08,0.2
				c0.05,0.04,0.11,0.08,0.17,0.1l1.04,0.34v0.56H302.95z M305.02,219.8c-0.2,0-0.38-0.04-0.57-0.13c-0.18-0.09-0.33-0.21-0.45-0.36
				c-0.12-0.15-0.18-0.33-0.18-0.53c0-0.33,0.12-0.57,0.36-0.74c0.24-0.17,0.52-0.25,0.83-0.25c0.37,0,0.67,0.08,0.9,0.23
				c0.23,0.15,0.35,0.38,0.35,0.67c0,0.22-0.06,0.41-0.18,0.58c-0.12,0.17-0.27,0.3-0.46,0.39
				C305.45,219.75,305.24,219.8,305.02,219.8z"/>
			<path class="st1" d="M308.3,227.87v-0.56l0.81-0.32c0.08-0.03,0.13-0.07,0.18-0.11c0.04-0.04,0.07-0.1,0.07-0.18v-4.5
				c0-0.09-0.02-0.15-0.07-0.19c-0.05-0.04-0.11-0.07-0.17-0.1l-0.8-0.34v-0.58l2.7-0.33v1.11h0.1c0.28-0.35,0.55-0.6,0.81-0.77
				c0.27-0.17,0.53-0.27,0.79-0.32s0.51-0.08,0.76-0.08c0.42,0,0.81,0.08,1.16,0.24s0.63,0.42,0.84,0.77
				c0.21,0.35,0.31,0.8,0.31,1.35v3.7c0,0.1,0.02,0.17,0.07,0.21c0.04,0.04,0.1,0.08,0.18,0.11l0.71,0.32v0.56h-3.67v-0.56
				l0.64-0.32c0.08-0.04,0.14-0.08,0.19-0.12c0.05-0.04,0.08-0.11,0.08-0.21v-2.97c0-0.4-0.03-0.73-0.1-1.01
				c-0.07-0.28-0.19-0.48-0.38-0.63c-0.19-0.14-0.48-0.22-0.86-0.22c-0.25,0-0.52,0.04-0.79,0.11c-0.28,0.07-0.51,0.24-0.69,0.49
				v4.25c0,0.08,0.02,0.14,0.08,0.18c0.05,0.04,0.11,0.08,0.17,0.11l0.6,0.32v0.56H308.3z"/>
			<path class="st1" d="M321.22,225.42c-0.33,0-0.6-0.02-0.83-0.06c-0.23-0.04-0.4-0.08-0.51-0.13c-0.09,0.04-0.17,0.12-0.26,0.24
				c-0.08,0.12-0.13,0.26-0.13,0.43c0,0.15,0.05,0.27,0.14,0.37c0.1,0.1,0.21,0.18,0.33,0.23h2.58c0.66,0,1.17,0.1,1.55,0.29
				c0.37,0.19,0.63,0.43,0.78,0.73c0.15,0.29,0.22,0.59,0.22,0.89c0,0.53-0.17,0.99-0.52,1.39c-0.34,0.4-0.82,0.72-1.42,0.94
				c-0.6,0.22-1.28,0.33-2.03,0.33c-0.65,0-1.24-0.07-1.76-0.21c-0.52-0.14-0.93-0.34-1.23-0.61c-0.3-0.27-0.45-0.59-0.45-0.97
				c0-0.43,0.15-0.77,0.45-1.01c0.3-0.24,0.67-0.41,1.1-0.51v-0.11c-0.19-0.05-0.37-0.12-0.54-0.23c-0.17-0.11-0.32-0.25-0.43-0.43
				c-0.11-0.17-0.17-0.37-0.17-0.6c0-0.27,0.07-0.5,0.2-0.7s0.3-0.35,0.5-0.47s0.4-0.2,0.59-0.23v-0.09
				c-0.15-0.09-0.33-0.21-0.52-0.37c-0.19-0.16-0.35-0.36-0.49-0.6c-0.14-0.24-0.21-0.53-0.21-0.86c0-0.49,0.12-0.92,0.37-1.29
				s0.6-0.67,1.06-0.88s1-0.31,1.64-0.31c0.36,0,0.69,0.02,0.97,0.06c0.28,0.04,0.56,0.08,0.82,0.13h2.4v0.97l-1.57-0.01v0.08
				c0.13,0.16,0.24,0.34,0.33,0.52s0.14,0.44,0.14,0.76c0,0.67-0.28,1.22-0.83,1.65C322.96,225.2,322.2,225.42,321.22,225.42z
				 M321.46,230.19c0.32,0,0.64-0.04,0.95-0.12c0.31-0.08,0.57-0.22,0.77-0.42c0.2-0.2,0.31-0.47,0.31-0.82
				c0-0.22-0.1-0.43-0.29-0.64c-0.2-0.2-0.51-0.31-0.94-0.31h-2.23c-0.12,0.09-0.24,0.21-0.35,0.37c-0.11,0.16-0.17,0.38-0.17,0.65
				c0,0.26,0.07,0.47,0.2,0.64s0.31,0.3,0.52,0.39c0.21,0.1,0.43,0.16,0.65,0.2C321.09,230.17,321.29,230.19,321.46,230.19z
				 M321.22,224.69c0.26,0,0.49-0.06,0.69-0.17c0.19-0.12,0.34-0.29,0.45-0.54s0.16-0.57,0.16-0.97c0-0.56-0.12-0.98-0.35-1.24
				s-0.54-0.39-0.92-0.39c-0.19,0-0.38,0.05-0.56,0.15c-0.18,0.1-0.33,0.27-0.45,0.5c-0.12,0.24-0.17,0.56-0.17,0.98
				c0,0.6,0.11,1.03,0.33,1.29S320.88,224.69,321.22,224.69z"/>
			<path class="st1" d="M330.93,227.87v-0.57l1.09-0.4c0.08-0.03,0.13-0.06,0.17-0.1c0.04-0.04,0.06-0.11,0.06-0.2v-6.76
				c0-0.09-0.02-0.15-0.07-0.19c-0.04-0.04-0.1-0.07-0.16-0.09l-1.09-0.41v-0.56h4.54v0.56l-1.09,0.41
				c-0.07,0.02-0.12,0.05-0.17,0.09c-0.05,0.04-0.07,0.1-0.07,0.19v6.76c0,0.09,0.02,0.16,0.07,0.21c0.05,0.05,0.1,0.08,0.17,0.1
				l1.09,0.4v0.57H330.93z"/>
			<path class="st1" d="M339.71,228c-0.59,0-1.09-0.15-1.51-0.45c-0.42-0.3-0.74-0.71-0.97-1.22c-0.22-0.52-0.34-1.1-0.34-1.76
				c0-0.73,0.14-1.4,0.41-2s0.66-1.08,1.17-1.44c0.51-0.36,1.12-0.54,1.82-0.54c0.42,0,0.78,0.07,1.08,0.22
				c0.3,0.15,0.54,0.32,0.72,0.52l-0.03-0.43v-1.68c0-0.09-0.02-0.15-0.07-0.19c-0.05-0.04-0.11-0.07-0.17-0.1l-1.06-0.44v-0.58h3.1
				v8.55c0,0.08,0.03,0.15,0.08,0.19c0.05,0.04,0.11,0.08,0.17,0.1l0.81,0.34v0.58l-2.72,0.32v-1.2h-0.11
				c-0.25,0.38-0.54,0.65-0.84,0.82s-0.6,0.27-0.87,0.32C340.1,227.98,339.88,228,339.71,228z M340.66,226.84
				c0.14,0,0.3-0.02,0.48-0.07c0.18-0.05,0.35-0.12,0.52-0.22c0.17-0.1,0.3-0.23,0.4-0.38v-4.23c-0.1-0.07-0.24-0.13-0.41-0.17
				c-0.18-0.04-0.35-0.07-0.53-0.09c-0.17-0.02-0.32-0.03-0.43-0.03c-0.43,0-0.79,0.11-1.07,0.33c-0.28,0.22-0.49,0.52-0.63,0.9
				c-0.14,0.38-0.2,0.79-0.2,1.24c0,0.51,0.06,0.97,0.19,1.38s0.33,0.74,0.6,0.98C339.86,226.73,340.22,226.84,340.66,226.84z"/>
			<path class="st1" d="M349.62,228.03c-0.68,0-1.3-0.14-1.85-0.42c-0.55-0.28-0.98-0.7-1.3-1.24c-0.32-0.55-0.48-1.21-0.48-2
				c0-0.72,0.15-1.37,0.46-1.94s0.73-1.02,1.28-1.35c0.54-0.33,1.17-0.49,1.89-0.49c0.67,0,1.25,0.13,1.74,0.38
				c0.48,0.26,0.85,0.6,1.1,1.02c0.25,0.43,0.38,0.89,0.38,1.41c0,0.06,0,0.15-0.01,0.28c-0.01,0.12-0.01,0.25-0.02,0.38
				c-0.01,0.12-0.02,0.21-0.03,0.27h-5.03l0.02-0.91h3.2c0-0.41-0.05-0.75-0.14-1.04c-0.1-0.28-0.25-0.5-0.46-0.65
				s-0.5-0.23-0.86-0.23c-0.29,0-0.54,0.06-0.75,0.18c-0.21,0.12-0.39,0.29-0.53,0.51c-0.14,0.22-0.24,0.49-0.31,0.8
				c-0.07,0.31-0.1,0.66-0.1,1.04c0,0.55,0.08,1.03,0.23,1.44c0.15,0.41,0.41,0.73,0.77,0.96c0.36,0.23,0.85,0.34,1.48,0.34
				c0.33,0,0.63-0.04,0.91-0.11c0.28-0.07,0.53-0.16,0.75-0.27c0.22-0.1,0.41-0.2,0.57-0.29h0.29v0.84
				c-0.36,0.26-0.82,0.51-1.39,0.75C350.87,227.91,350.27,228.03,349.62,228.03z"/>
			<path class="st1" d="M356.32,228c-0.44,0-0.82-0.1-1.13-0.29c-0.31-0.2-0.55-0.45-0.72-0.76s-0.25-0.64-0.25-0.98
				c0-0.45,0.11-0.83,0.33-1.15c0.22-0.32,0.5-0.58,0.85-0.77c0.35-0.2,0.71-0.34,1.1-0.43c0.39-0.09,0.75-0.14,1.09-0.14
				c0.07,0,0.18,0.01,0.34,0.03c0.16,0.02,0.33,0.03,0.49,0.05c0.16,0.02,0.27,0.03,0.33,0.04v-0.67c0-0.48-0.1-0.83-0.3-1.05
				c-0.2-0.22-0.5-0.33-0.9-0.33c-0.2,0-0.41,0.05-0.64,0.14c-0.23,0.09-0.45,0.2-0.67,0.34c-0.22,0.13-0.43,0.26-0.61,0.39
				c-0.19,0.13-0.34,0.23-0.47,0.31h-0.41v-1.56c0.3-0.09,0.6-0.18,0.89-0.27c0.29-0.09,0.61-0.16,0.96-0.22
				c0.35-0.06,0.75-0.08,1.2-0.08c0.47,0,0.91,0.06,1.33,0.18c0.42,0.12,0.77,0.34,1.03,0.67c0.27,0.33,0.4,0.8,0.4,1.42l-0.01,3.5
				c0,0.17,0.06,0.3,0.18,0.41c0.12,0.11,0.25,0.16,0.38,0.16c0.1,0,0.21-0.02,0.32-0.05c0.11-0.03,0.22-0.07,0.32-0.1h0.19v0.64
				c-0.1,0.07-0.25,0.15-0.44,0.24s-0.38,0.17-0.58,0.23s-0.38,0.1-0.54,0.1c-0.5,0-0.88-0.1-1.12-0.29
				c-0.24-0.2-0.37-0.5-0.37-0.91h-0.1c-0.24,0.35-0.5,0.61-0.79,0.78c-0.29,0.17-0.58,0.29-0.88,0.34
				C356.83,227.97,356.57,228,356.32,228z M357.24,226.86c0.25,0,0.52-0.05,0.82-0.16s0.53-0.28,0.7-0.53v-1.8
				c-0.52,0-0.98,0.04-1.38,0.11c-0.4,0.07-0.71,0.21-0.93,0.4c-0.22,0.2-0.33,0.48-0.33,0.84c0,0.3,0.06,0.53,0.18,0.69
				c0.12,0.17,0.27,0.28,0.44,0.34C356.91,226.82,357.08,226.86,357.24,226.86z"/>
			<path class="st1" d="M362.87,227.56v-1.8h1.01l0.19,0.57c0.02,0.08,0.06,0.14,0.11,0.2c0.05,0.06,0.09,0.1,0.14,0.13
				c0.18,0.12,0.39,0.22,0.65,0.31c0.26,0.09,0.54,0.14,0.87,0.14c0.22,0,0.44-0.04,0.64-0.11c0.2-0.07,0.37-0.18,0.5-0.33
				c0.13-0.14,0.2-0.32,0.2-0.53c0-0.27-0.09-0.48-0.26-0.62c-0.18-0.14-0.44-0.26-0.8-0.36c-0.22-0.06-0.46-0.13-0.7-0.19
				c-0.25-0.06-0.48-0.13-0.7-0.19c-0.58-0.17-1.02-0.42-1.3-0.76c-0.28-0.34-0.43-0.73-0.43-1.16c0-0.46,0.15-0.86,0.46-1.2
				c0.3-0.34,0.7-0.61,1.19-0.8c0.49-0.19,1.02-0.28,1.6-0.28c0.48,0,0.91,0.03,1.29,0.09s0.72,0.14,1.05,0.23v1.83h-1l-0.19-0.63
				c-0.02-0.06-0.06-0.12-0.11-0.17s-0.1-0.09-0.14-0.11c-0.15-0.09-0.33-0.16-0.54-0.23s-0.45-0.09-0.69-0.09
				c-0.35,0-0.64,0.08-0.85,0.23c-0.21,0.15-0.32,0.35-0.32,0.59c0,0.27,0.1,0.49,0.3,0.66c0.2,0.17,0.51,0.31,0.93,0.43
				c0.21,0.06,0.42,0.12,0.64,0.18c0.22,0.06,0.43,0.12,0.63,0.18c0.58,0.17,1.01,0.41,1.29,0.72c0.28,0.3,0.42,0.69,0.42,1.17
				c0,0.52-0.16,0.96-0.48,1.31c-0.32,0.35-0.73,0.62-1.23,0.8c-0.5,0.18-1.04,0.27-1.59,0.27c-0.54,0-1.05-0.05-1.53-0.16
				C363.62,227.78,363.21,227.67,362.87,227.56z"/>
			<path class="st1" d="M374.44,227.87v-0.56l1.04-0.34c0.08-0.03,0.14-0.06,0.18-0.1c0.05-0.04,0.07-0.1,0.07-0.19v-4.37
				c0-0.09-0.02-0.15-0.08-0.19c-0.05-0.04-0.11-0.08-0.17-0.1l-1.04-0.38v-0.58l3.08-0.21v5.83c0,0.09,0.03,0.15,0.08,0.2
				c0.05,0.04,0.11,0.08,0.17,0.1l1.04,0.34v0.56H374.44z M376.51,219.8c-0.2,0-0.38-0.04-0.57-0.13c-0.18-0.09-0.33-0.21-0.45-0.36
				c-0.12-0.15-0.18-0.33-0.18-0.53c0-0.33,0.12-0.57,0.36-0.74c0.24-0.17,0.52-0.25,0.83-0.25c0.37,0,0.67,0.08,0.9,0.23
				c0.23,0.15,0.35,0.38,0.35,0.67c0,0.22-0.06,0.41-0.18,0.58c-0.12,0.17-0.27,0.3-0.46,0.39
				C376.94,219.75,376.74,219.8,376.51,219.8z"/>
			<path class="st1" d="M379.79,227.87v-0.56l0.81-0.32c0.08-0.03,0.13-0.07,0.18-0.11c0.04-0.04,0.07-0.1,0.07-0.18v-4.5
				c0-0.09-0.02-0.15-0.07-0.19c-0.05-0.04-0.11-0.07-0.17-0.1l-0.8-0.34v-0.58l2.7-0.33v1.11h0.1c0.28-0.35,0.55-0.6,0.81-0.77
				c0.27-0.17,0.53-0.27,0.79-0.32s0.51-0.08,0.76-0.08c0.42,0,0.81,0.08,1.16,0.24s0.63,0.42,0.84,0.77
				c0.21,0.35,0.31,0.8,0.31,1.35v3.7c0,0.1,0.02,0.17,0.07,0.21c0.04,0.04,0.1,0.08,0.18,0.11l0.71,0.32v0.56h-3.67v-0.56
				l0.64-0.32c0.08-0.04,0.14-0.08,0.19-0.12c0.05-0.04,0.08-0.11,0.08-0.21v-2.97c0-0.4-0.03-0.73-0.1-1.01
				c-0.07-0.28-0.19-0.48-0.38-0.63c-0.19-0.14-0.48-0.22-0.86-0.22c-0.25,0-0.52,0.04-0.79,0.11c-0.28,0.07-0.51,0.24-0.69,0.49
				v4.25c0,0.08,0.02,0.14,0.08,0.18c0.05,0.04,0.11,0.08,0.17,0.11l0.6,0.32v0.56H379.79z"/>
			<path class="st1" d="M394.5,220.78v1h-2.5v4.07c0,0.21,0.08,0.38,0.23,0.53s0.33,0.25,0.53,0.33s0.38,0.11,0.52,0.11
				c0.14,0,0.32-0.01,0.53-0.04c0.21-0.03,0.37-0.06,0.47-0.08h0.29v0.62c-0.1,0.06-0.26,0.14-0.49,0.25
				c-0.23,0.11-0.5,0.21-0.8,0.29c-0.3,0.09-0.61,0.13-0.92,0.13c-0.38,0-0.74-0.06-1.07-0.17c-0.33-0.12-0.59-0.28-0.79-0.5
				s-0.3-0.47-0.3-0.76v-4.77h-1.15v-0.87c0.25-0.03,0.47-0.07,0.66-0.11c0.19-0.04,0.33-0.13,0.44-0.25
				c0.11-0.13,0.17-0.34,0.19-0.64l0.06-0.99l1.59-0.24v2.11H394.5z"/>
			<path class="st1" d="M399.17,228.04c-0.73,0-1.37-0.15-1.93-0.44c-0.55-0.29-0.99-0.72-1.29-1.27s-0.46-1.22-0.46-2.01
				c0-0.72,0.15-1.36,0.46-1.93c0.3-0.56,0.74-1,1.3-1.33c0.56-0.32,1.22-0.48,1.99-0.48c0.83,0,1.51,0.17,2.06,0.5
				c0.54,0.34,0.95,0.79,1.22,1.35c0.27,0.57,0.4,1.18,0.4,1.86c0,0.72-0.15,1.36-0.46,1.92s-0.74,1.01-1.3,1.33
				C400.59,227.88,399.93,228.04,399.17,228.04z M399.26,227.12c0.33,0,0.61-0.08,0.83-0.24c0.22-0.16,0.39-0.37,0.52-0.63
				s0.22-0.55,0.28-0.87c0.05-0.31,0.08-0.63,0.08-0.95c0-0.51-0.06-0.99-0.17-1.44c-0.12-0.44-0.31-0.8-0.58-1.08
				c-0.27-0.28-0.62-0.41-1.07-0.41c-0.33,0-0.61,0.08-0.83,0.24c-0.22,0.16-0.4,0.36-0.52,0.62s-0.22,0.55-0.27,0.86
				c-0.05,0.32-0.08,0.63-0.08,0.94c0,0.35,0.03,0.69,0.09,1.04c0.06,0.35,0.16,0.66,0.29,0.95s0.32,0.52,0.56,0.7
				C398.61,227.03,398.9,227.12,399.26,227.12z"/>
			<path class="st1" d="M408.69,227.87v-0.57l1.09-0.4c0.08-0.03,0.13-0.06,0.17-0.1c0.04-0.04,0.06-0.11,0.06-0.2v-6.76
				c0-0.09-0.02-0.15-0.07-0.19c-0.04-0.04-0.1-0.07-0.16-0.09l-1.09-0.41v-0.56h4.54v0.56l-1.09,0.41
				c-0.07,0.02-0.12,0.05-0.17,0.09c-0.05,0.04-0.07,0.1-0.07,0.19v6.76c0,0.09,0.02,0.16,0.07,0.21c0.05,0.05,0.1,0.08,0.17,0.1
				l1.09,0.4v0.57H408.69z"/>
			<path class="st1" d="M419.27,227.87v-0.56l0.62-0.32c0.07-0.04,0.13-0.08,0.18-0.12c0.05-0.04,0.07-0.11,0.07-0.21v-2.97
				c0-0.4-0.03-0.73-0.09-1.01s-0.18-0.48-0.37-0.63c-0.18-0.14-0.45-0.22-0.82-0.22c-0.25,0-0.51,0.04-0.78,0.11
				c-0.27,0.07-0.49,0.24-0.66,0.49v4.25c0,0.08,0.02,0.14,0.07,0.18c0.05,0.04,0.1,0.08,0.17,0.11l0.59,0.32v0.56h-3.69v-0.56
				l0.81-0.32c0.06-0.03,0.12-0.07,0.17-0.11c0.05-0.04,0.08-0.1,0.08-0.19v-4.5c0-0.09-0.03-0.15-0.08-0.19
				c-0.05-0.04-0.11-0.08-0.17-0.1l-0.81-0.34v-0.58l2.71-0.33v1.11h0.1c0.4-0.51,0.79-0.83,1.18-0.96c0.39-0.13,0.75-0.2,1.09-0.2
				c0.34,0,0.66,0.05,0.94,0.16c0.29,0.1,0.53,0.27,0.73,0.49c0.21,0.22,0.35,0.5,0.45,0.85l0.09,0.18v4.4
				c0,0.1,0.02,0.17,0.07,0.21c0.04,0.04,0.1,0.08,0.18,0.12l0.57,0.32v0.56H419.27z M423.69,227.87v-0.56l0.65-0.32
				c0.07-0.04,0.13-0.08,0.18-0.12c0.05-0.04,0.07-0.11,0.07-0.21v-2.97c0-0.4-0.03-0.73-0.1-1.01s-0.19-0.48-0.38-0.63
				c-0.19-0.14-0.46-0.22-0.83-0.22c-0.23,0-0.49,0.04-0.78,0.13c-0.29,0.08-0.52,0.28-0.69,0.58l-0.19-0.5
				c0.35-0.46,0.66-0.79,0.95-1c0.29-0.2,0.56-0.33,0.81-0.38c0.25-0.05,0.49-0.08,0.72-0.08c0.41,0,0.79,0.08,1.14,0.24
				c0.35,0.16,0.62,0.42,0.83,0.77c0.21,0.35,0.31,0.8,0.31,1.35v3.7c0,0.1,0.02,0.17,0.07,0.21c0.05,0.04,0.1,0.08,0.18,0.11
				l0.71,0.32v0.56H423.69z"/>
			<path class="st1" d="M428.3,231.07v-0.56l0.85-0.34c0.08-0.03,0.13-0.06,0.18-0.1c0.04-0.04,0.07-0.1,0.07-0.18v-7.7
				c0-0.09-0.03-0.15-0.08-0.19c-0.05-0.04-0.11-0.08-0.17-0.1l-0.81-0.34v-0.58l2.71-0.33v1.18h0.11c0.18-0.27,0.39-0.5,0.63-0.68
				c0.24-0.18,0.51-0.32,0.8-0.41s0.61-0.14,0.94-0.14c0.59,0,1.1,0.15,1.52,0.45c0.42,0.3,0.74,0.71,0.97,1.22
				c0.22,0.52,0.33,1.1,0.33,1.75c0,0.72-0.13,1.38-0.4,1.98c-0.26,0.6-0.65,1.07-1.15,1.42s-1.11,0.53-1.81,0.53
				c-0.42,0-0.79-0.07-1.11-0.22s-0.56-0.32-0.73-0.52l0.03,0.43v2.25c0,0.09,0.02,0.15,0.08,0.18c0.05,0.04,0.11,0.07,0.18,0.1
				l1.02,0.35v0.56H428.3z M431.19,222.47v4.11c0.12,0.08,0.28,0.13,0.45,0.18c0.18,0.04,0.35,0.07,0.53,0.09
				c0.17,0.02,0.31,0.03,0.42,0.03c0.43,0,0.79-0.11,1.07-0.33c0.28-0.22,0.49-0.51,0.62-0.88c0.13-0.37,0.2-0.77,0.2-1.22
				c0-0.51-0.07-0.97-0.2-1.37c-0.13-0.41-0.33-0.73-0.61-0.96s-0.63-0.35-1.08-0.35c-0.34,0-0.64,0.08-0.88,0.24
				C431.47,222.17,431.29,222.32,431.19,222.47z"/>
			<path class="st1" d="M439.87,228c-0.44,0-0.82-0.1-1.13-0.29c-0.31-0.2-0.55-0.45-0.72-0.76s-0.25-0.64-0.25-0.98
				c0-0.45,0.11-0.83,0.33-1.15c0.22-0.32,0.5-0.58,0.85-0.77c0.35-0.2,0.71-0.34,1.1-0.43c0.39-0.09,0.75-0.14,1.09-0.14
				c0.07,0,0.18,0.01,0.34,0.03c0.16,0.02,0.33,0.03,0.49,0.05c0.16,0.02,0.27,0.03,0.33,0.04v-0.67c0-0.48-0.1-0.83-0.3-1.05
				c-0.2-0.22-0.5-0.33-0.9-0.33c-0.2,0-0.41,0.05-0.64,0.14c-0.23,0.09-0.45,0.2-0.67,0.34c-0.22,0.13-0.43,0.26-0.61,0.39
				c-0.19,0.13-0.34,0.23-0.47,0.31h-0.41v-1.56c0.3-0.09,0.6-0.18,0.89-0.27c0.29-0.09,0.61-0.16,0.96-0.22
				c0.35-0.06,0.75-0.08,1.2-0.08c0.47,0,0.91,0.06,1.33,0.18c0.42,0.12,0.77,0.34,1.03,0.67c0.27,0.33,0.4,0.8,0.4,1.42l-0.01,3.5
				c0,0.17,0.06,0.3,0.18,0.41c0.12,0.11,0.25,0.16,0.38,0.16c0.1,0,0.21-0.02,0.32-0.05c0.11-0.03,0.22-0.07,0.32-0.1h0.19v0.64
				c-0.1,0.07-0.25,0.15-0.44,0.24s-0.38,0.17-0.58,0.23s-0.38,0.1-0.54,0.1c-0.5,0-0.88-0.1-1.12-0.29
				c-0.24-0.2-0.37-0.5-0.37-0.91h-0.1c-0.24,0.35-0.5,0.61-0.79,0.78c-0.29,0.17-0.58,0.29-0.88,0.34
				C440.38,227.97,440.11,228,439.87,228z M440.79,226.86c0.25,0,0.52-0.05,0.82-0.16s0.53-0.28,0.7-0.53v-1.8
				c-0.52,0-0.98,0.04-1.38,0.11c-0.4,0.07-0.71,0.21-0.93,0.4c-0.22,0.2-0.33,0.48-0.33,0.84c0,0.3,0.06,0.53,0.18,0.69
				c0.12,0.17,0.27,0.28,0.44,0.34C440.45,226.82,440.62,226.86,440.79,226.86z"/>
			<path class="st1" d="M452.2,226.04h0.3v0.87c-0.35,0.26-0.75,0.51-1.21,0.76c-0.46,0.24-1,0.36-1.64,0.36
				c-0.71,0-1.33-0.15-1.84-0.46c-0.51-0.31-0.91-0.74-1.18-1.28c-0.27-0.55-0.41-1.18-0.41-1.89c0-0.57,0.11-1.09,0.33-1.55
				c0.22-0.46,0.52-0.87,0.9-1.2c0.38-0.34,0.8-0.59,1.26-0.78s0.93-0.27,1.4-0.27c0.35,0,0.67,0.03,0.94,0.1
				c0.27,0.07,0.51,0.14,0.7,0.23c0.19,0.09,0.35,0.15,0.46,0.2v1.63h-0.42c-0.23-0.14-0.47-0.29-0.73-0.45
				c-0.26-0.17-0.53-0.31-0.81-0.43c-0.28-0.12-0.58-0.18-0.89-0.18c-0.12,0-0.24,0.03-0.38,0.08c-0.14,0.05-0.25,0.13-0.34,0.25
				c-0.08,0.1-0.17,0.24-0.25,0.43c-0.08,0.18-0.15,0.42-0.21,0.7c-0.05,0.28-0.08,0.63-0.08,1.04c0,0.83,0.19,1.46,0.56,1.91
				s0.91,0.67,1.62,0.67c0.25,0,0.5-0.04,0.73-0.11c0.23-0.07,0.44-0.17,0.64-0.28C451.87,226.26,452.05,226.15,452.2,226.04z"/>
			<path class="st1" d="M458.68,220.78v1h-2.5v4.07c0,0.21,0.08,0.38,0.23,0.53s0.33,0.25,0.53,0.33s0.38,0.11,0.52,0.11
				c0.14,0,0.32-0.01,0.53-0.04c0.21-0.03,0.37-0.06,0.47-0.08h0.29v0.62c-0.1,0.06-0.26,0.14-0.49,0.25
				c-0.23,0.11-0.5,0.21-0.8,0.29c-0.3,0.09-0.61,0.13-0.92,0.13c-0.38,0-0.74-0.06-1.07-0.17c-0.33-0.12-0.59-0.28-0.79-0.5
				s-0.3-0.47-0.3-0.76v-4.77h-1.15v-0.87c0.25-0.03,0.47-0.07,0.66-0.11c0.19-0.04,0.33-0.13,0.44-0.25
				c0.11-0.13,0.17-0.34,0.19-0.64l0.06-0.99l1.59-0.24v2.11H458.68z"/>
		</g>
	</g>
</g>
</svg>
